<?xml version="1.0" encoding="UTF-8" standalone="no"?><!DOCTYPE svg PUBLIC "-//W3C//DTD SVG 1.1//EN" "http://www.w3.org/Graphics/SVG/1.1/DTD/svg11.dtd"><svg width="100%" height="100%" viewBox="0 0 1390 334" version="1.1" xmlns="http://www.w3.org/2000/svg" xmlns:xlink="http://www.w3.org/1999/xlink" xml:space="preserve" xmlns:serif="http://www.serif.com/" style="fill-rule:evenodd;clip-rule:evenodd;stroke-linejoin:round;stroke-miterlimit:2;"><g id="_2-color-white" serif:id="2-color white"><g><path d="M143.717,78.825l-49.316,0l0,-59.896l-58.919,0l0,59.896l-35.482,0l0,45.573l35.482,0l0,138.997c-0.326,47.038 33.854,70.15 78.125,68.848c16.764,-0.489 28.32,-3.744 34.668,-5.86l-9.929,-46.061c-3.255,0.814 -9.928,2.279 -17.252,2.279c-14.812,0 -26.693,-5.209 -26.693,-28.972l0,-129.231l49.316,0l0,-45.573Z" style="fill:#fff;fill-rule:nonzero;"/><path d="M259.354,184.322c0,-35.644 22.157,-56.196 53.306,-56.196c30.506,0 48.488,19.428 48.488,52.663l0,148.036l58.123,0l0,-157.027c0,-59.567 -33.718,-92.803 -84.936,-92.803c-37.892,0 -61.976,17.18 -73.375,45.117l-2.891,0l0,-124.112l-56.837,0l0,328.825l58.122,0l0,-144.503Z" style="fill:#fff;fill-rule:nonzero;"/><path d="M552.693,333.87c38.754,0 61.91,-18.171 72.523,-38.915l1.929,0l0,33.93l55.96,0l0,-165.307c0,-65.287 -53.226,-84.905 -100.342,-84.905c-51.94,0 -91.819,23.156 -104.684,68.181l54.352,7.719c5.789,-16.884 22.191,-31.357 50.654,-31.357c27.015,0 41.809,13.829 41.809,38.111l0,0.965c0,16.723 -17.528,17.527 -61.106,22.191c-47.92,5.145 -93.749,19.457 -93.749,75.095c0,48.563 35.538,74.292 82.654,74.292Zm15.115,-42.774c-24.281,0 -41.648,-11.095 -41.648,-32.482c0,-22.352 19.457,-31.679 45.508,-35.377c15.276,-2.091 45.829,-5.95 53.387,-12.061l0,29.106c0,27.497 -22.191,50.814 -57.247,50.814Z" style="fill:#fff;fill-rule:nonzero;"/></g><g><path d="M1015.14,202.053c61.721,0 99.11,-38.082 99.11,-101.224c0,-62.944 -37.389,-100.829 -98.517,-100.829l-72.404,0l0,202.053l71.811,0Zm-28.981,-36.602l0,-128.849l27.299,0c37.983,0 58.062,19.337 58.062,64.227c0,45.087 -20.079,64.622 -58.16,64.622l-27.201,0Z" style="fill:#fff;fill-rule:nonzero;"/><path d="M1209.17,202.053c45.312,0 73.51,-31.018 73.51,-77.01c0,-46.283 -28.198,-77.204 -73.51,-77.204c-45.311,0 -73.509,30.921 -73.509,77.204c0,45.992 28.198,77.01 73.509,77.01Zm0.195,-32.087c-20.906,0 -31.601,-19.156 -31.601,-45.214c0,-26.059 10.695,-45.312 31.601,-45.312c20.516,0 31.212,19.253 31.212,45.312c0,26.058 -10.696,45.214 -31.212,45.214Z" style="fill:#fff;fill-rule:nonzero;"/><path d="M1387.16,46.923l-28.78,0l0,-36.647l-42.423,0l0,36.647l-20.912,0l0,31.866l20.912,0l0,79.668c-0.199,29.975 20.216,44.813 50.988,43.518c10.954,-0.398 18.721,-2.589 23.003,-3.983l-6.672,-31.569c-2.091,0.399 -6.572,1.395 -10.556,1.395c-8.464,0 -14.34,-3.187 -14.34,-14.938l0,-74.091l28.78,0l0,-31.866Z" style="fill:#fff;fill-rule:nonzero;"/></g><path d="M818.034,137.384c0,0 -17.309,-12.529 -17.309,-36.383c0,-23.854 17.309,-36.382 17.309,-36.382l0,-45.69l-58.919,0l0,59.896l-35.482,0l0,45.573l35.482,0l0,138.997c-0.326,47.038 33.854,70.15 78.124,68.848c16.765,-0.489 28.321,-3.744 34.668,-5.86l-9.928,-46.061c-3.255,0.814 -9.928,2.279 -17.253,2.279c-14.811,0 -26.692,-5.209 -26.692,-28.972l0,-116.245Z" style="fill:#fff;fill-rule:nonzero;"/><ellipse cx="847.638" cy="101.001" rx="29.47" ry="29.932" style="fill:#aaafc8;"/></g></svg>