<?xml version="1.0" encoding="UTF-8" standalone="no"?><!DOCTYPE svg PUBLIC "-//W3C//DTD SVG 1.1//EN" "http://www.w3.org/Graphics/SVG/1.1/DTD/svg11.dtd"><svg width="100%" height="100%" viewBox="0 0 154 314" version="1.1" xmlns="http://www.w3.org/2000/svg" xmlns:xlink="http://www.w3.org/1999/xlink" xml:space="preserve" xmlns:serif="http://www.serif.com/" style="fill-rule:evenodd;clip-rule:evenodd;stroke-linejoin:round;stroke-miterlimit:2;"><g id="_1-color-blue-icon" serif:id="1-color blue icon"><path d="M94.401,118.455c0,0 -17.309,-12.529 -17.309,-36.383c0,-23.854 17.309,-36.382 17.309,-36.382l0,-45.69l-58.919,0l0,59.896l-35.482,0l0,45.573l35.482,0l0,138.997c-0.326,47.038 33.854,70.15 78.125,68.848c16.764,-0.489 28.32,-3.744 34.668,-5.86l-9.929,-46.061c-3.255,0.814 -9.928,2.279 -17.252,2.279c-14.812,0 -26.693,-5.209 -26.693,-28.972l0,-116.245Z" style="fill:#1f4c7c;fill-rule:nonzero;"/><ellipse cx="124.005" cy="82.072" rx="29.47" ry="29.932" style="fill:#1f4c7c;"/></g></svg>