<?xml version="1.0" standalone="no"?>
<!DOCTYPE svg PUBLIC "-//W3C//DTD SVG 20010904//EN"
 "http://www.w3.org/TR/2001/REC-SVG-20010904/DTD/svg10.dtd">
<svg version="1.0" xmlns="http://www.w3.org/2000/svg"
 width="642.000000pt" height="642.000000pt" viewBox="0 0 642.000000 642.000000"
 preserveAspectRatio="xMidYMid meet">
<metadata>
Created by potrace 1.14, written by Peter Selinger 2001-2017
</metadata>
<g transform="translate(0.000000,642.000000) scale(0.100000,-0.100000)"
fill="#000000" stroke="none">
<path d="M2828 6415 c-1 -2 -37 -6 -79 -9 -42 -4 -85 -8 -95 -10 -11 -2 -40
-6 -65 -10 -163 -24 -319 -60 -484 -114 -44 -14 -82 -26 -85 -27 -11 -4 -50
-20 -165 -68 -129 -54 -315 -148 -354 -178 -13 -11 -27 -19 -32 -19 -12 0
-206 -133 -251 -172 -12 -10 -24 -18 -27 -18 -3 0 -17 -10 -31 -22 -14 -13
-48 -41 -75 -63 -95 -76 -349 -337 -418 -430 -4 -5 -25 -32 -46 -60 -144 -188
-301 -464 -392 -692 -26 -66 -99 -270 -98 -276 0 -1 -2 -9 -4 -17 -12 -39 -39
-144 -41 -163 -2 -12 -6 -33 -10 -47 -7 -28 -15 -70 -22 -115 -2 -16 -7 -39
-9 -51 -2 -11 -7 -45 -10 -75 -4 -30 -9 -67 -12 -84 -7 -40 -12 -538 -6 -549
3 -4 7 -25 8 -46 3 -32 12 -121 20 -180 1 -8 7 -40 13 -70 6 -30 13 -66 16
-80 6 -38 26 -118 48 -194 11 -38 21 -76 23 -85 4 -14 36 -108 52 -151 3 -8 7
-19 8 -25 4 -14 80 -186 118 -265 95 -198 275 -468 437 -654 68 -79 246 -251
335 -325 55 -46 110 -92 123 -102 12 -11 24 -19 27 -19 4 0 61 -39 140 -97 6
-5 26 -17 45 -27 19 -11 37 -22 40 -25 5 -6 15 -12 89 -53 20 -11 42 -25 49
-30 6 -6 12 -7 12 -4 0 4 13 -2 29 -13 16 -12 31 -21 34 -21 3 0 43 -18 89
-39 110 -53 294 -123 378 -146 158 -44 289 -76 316 -78 19 -1 34 -4 34 -7 0
-3 12 -6 28 -7 15 -1 44 -4 65 -7 157 -24 228 -29 442 -30 168 0 298 6 375 18
14 2 46 7 71 10 55 8 73 11 169 31 116 23 124 25 140 31 8 3 26 8 39 10 96 19
446 151 561 213 125 66 186 101 243 137 37 24 70 44 72 44 4 0 44 29 116 83 8
7 31 23 50 37 38 27 41 29 88 70 19 17 39 30 45 30 6 0 252 -241 546 -535 524
-524 536 -535 574 -535 100 0 214 67 257 152 26 50 31 70 34 134 l3 51 -538
538 -538 538 74 93 c41 51 103 137 139 191 35 54 68 103 72 108 34 46 193 369
236 480 34 88 101 295 112 345 3 14 16 77 29 140 13 63 27 135 30 160 3 25 8
55 10 68 26 128 27 572 2 742 -2 14 -7 54 -11 90 -4 36 -9 68 -11 71 -2 4 -6
24 -10 45 -29 189 -127 495 -225 702 -21 46 -39 87 -39 93 0 5 -4 9 -10 9 -5
0 -10 8 -10 18 0 10 -4 22 -9 27 -5 6 -24 37 -42 70 -18 33 -45 79 -61 102
-15 23 -28 46 -28 51 0 6 -3 12 -7 14 -12 5 -53 66 -53 78 0 5 -4 10 -8 10 -4
0 -15 12 -24 28 -9 15 -25 37 -35 49 -10 12 -40 50 -68 85 -118 149 -368 398
-469 467 -12 8 -37 27 -56 43 -49 40 -47 39 -130 95 -150 101 -363 218 -500
276 -190 79 -425 153 -590 186 -128 25 -130 25 -215 35 -33 4 -73 10 -90 12
-34 6 -512 14 -517 9z m357 -620 c127 -7 205 -16 300 -34 33 -7 73 -15 90 -18
156 -27 481 -154 650 -253 28 -16 57 -32 65 -36 25 -12 157 -102 173 -118 9
-9 19 -16 24 -16 4 0 22 -12 38 -28 17 -15 52 -45 80 -67 98 -79 273 -263 356
-375 167 -225 282 -443 367 -695 46 -136 81 -283 97 -405 3 -19 8 -55 11 -80
3 -25 8 -65 10 -90 7 -80 2 -445 -6 -445 -1 0 -3 -20 -5 -44 -3 -25 -9 -67
-14 -95 -6 -28 -13 -66 -16 -85 -24 -147 -113 -408 -194 -571 -69 -139 -170
-307 -208 -348 -7 -7 -13 -17 -13 -20 0 -4 -10 -18 -23 -32 -12 -14 -30 -36
-39 -49 -43 -62 -200 -226 -297 -311 -105 -92 -116 -100 -216 -169 -110 -76
-167 -110 -295 -175 -86 -44 -299 -132 -335 -139 -11 -2 -27 -6 -35 -10 -8 -3
-37 -12 -65 -20 -46 -14 -74 -21 -133 -32 -13 -2 -31 -6 -40 -9 -18 -6 -129
-22 -222 -33 -74 -9 -419 -9 -500 0 -140 16 -235 34 -382 73 -105 28 -305 99
-325 116 -7 6 -13 8 -13 5 0 -14 -256 127 -373 204 -174 116 -397 320 -532
489 -124 154 -262 382 -333 547 -27 64 -45 106 -47 113 -1 3 -18 57 -38 120
-21 63 -39 124 -42 135 -36 163 -52 256 -60 346 -1 14 -4 30 -7 35 -6 11 -2
442 5 469 2 11 8 47 11 80 4 33 9 67 11 75 2 8 7 31 10 50 16 96 85 334 122
420 3 8 7 17 8 20 39 114 171 354 275 500 124 174 300 361 445 473 6 4 24 19
40 33 65 54 256 176 369 234 127 66 303 138 420 171 39 11 78 22 86 24 54 16
180 41 249 51 25 3 57 8 71 10 14 3 88 7 165 10 77 4 142 8 143 9 2 2 9 2 15
0 7 -3 53 -7 102 -10z"/>
<path d="M2806 3622 c-5 -9 -6 -2252 0 -2272 4 -17 53 -22 234 -23 137 0 213
4 226 14 6 5 9 60 8 151 -3 196 -13 675 -20 893 -3 99 -6 245 -8 323 l-3 144
533 -534 c294 -293 541 -533 548 -533 27 0 177 139 287 266 l48 55 -541 541
-541 541 149 -4 c82 -2 228 -6 324 -8 730 -20 1040 -25 1041 -17 10 50 14 363
5 421 -2 14 -4 30 -5 37 -1 9 -277 12 -1141 12 -626 0 -1141 -3 -1144 -7z"/>
</g>
</svg>
