<?xml version="1.0" standalone="no"?>
<!DOCTYPE svg PUBLIC "-//W3C//DTD SVG 20010904//EN"
 "http://www.w3.org/TR/2001/REC-SVG-20010904/DTD/svg10.dtd">
<svg version="1.0" xmlns="http://www.w3.org/2000/svg"
 width="642.000000pt" height="642.000000pt" viewBox="0 0 642.000000 642.000000"
 preserveAspectRatio="xMidYMid meet">
<metadata>
Created by potrace 1.14, written by Peter Selinger 2001-2017
</metadata>
<g transform="translate(0.000000,642.000000) scale(0.100000,-0.100000)"
fill="#000000" stroke="none">
<path d="M2849 6416 c-2 -2 -47 -7 -99 -11 -52 -3 -97 -8 -100 -10 -3 -1 -34
-6 -69 -9 -36 -4 -67 -9 -70 -10 -3 -2 -23 -7 -44 -10 -226 -36 -540 -143
-797 -272 -385 -193 -726 -469 -998 -808 -154 -191 -240 -327 -355 -556 -115
-231 -185 -425 -243 -675 -15 -64 -55 -321 -62 -389 -9 -104 -8 -482 1 -566
16 -138 18 -157 33 -240 51 -281 134 -537 258 -792 84 -172 110 -217 211 -368
232 -346 524 -634 876 -862 87 -57 103 -66 244 -141 195 -104 548 -237 702
-263 15 -3 36 -7 45 -10 10 -3 30 -7 45 -10 16 -3 64 -11 108 -19 247 -43 668
-53 855 -20 14 3 48 7 75 10 28 3 57 8 65 10 8 3 31 7 50 9 110 14 434 104
545 151 262 112 390 178 565 292 120 79 276 195 298 222 11 13 85 -57 552
-524 l540 -540 53 1 c85 2 131 20 197 80 43 39 79 119 87 196 6 57 61 -3 -580
637 l-495 494 102 136 c286 380 472 786 560 1226 46 231 60 368 60 610 0 210
-8 318 -40 505 -21 128 -22 132 -59 273 -129 499 -400 976 -767 1347 -91 92
-250 234 -301 269 -12 8 -24 18 -27 22 -9 12 -225 157 -305 204 -177 104 -358
186 -567 256 -126 42 -182 58 -293 84 -44 11 -239 45 -288 51 -29 3 -63 8 -77
10 -32 5 -486 14 -491 10z m461 -629 c14 -3 61 -11 105 -17 44 -6 98 -16 120
-22 22 -5 51 -12 65 -15 116 -20 390 -121 544 -201 330 -170 661 -460 879
-773 124 -178 239 -411 310 -630 34 -102 82 -303 92 -384 3 -22 8 -67 12 -100
10 -77 10 -429 0 -520 -9 -87 -13 -107 -41 -250 -74 -367 -271 -763 -526
-1057 -417 -480 -986 -776 -1606 -835 -139 -13 -527 -5 -554 12 -3 2 -30 6
-60 10 -284 35 -683 191 -954 375 -390 262 -698 635 -879 1060 -53 125 -116
317 -133 403 -2 10 -6 26 -8 35 -3 9 -8 33 -10 52 -3 20 -7 47 -10 60 -18 75
-30 231 -30 385 -1 448 102 835 327 1230 30 53 135 211 150 227 7 7 34 41 60
76 56 72 225 245 312 318 182 154 380 277 619 384 165 74 505 162 680 176 45
3 83 8 85 10 5 5 423 -3 451 -9z"/>
<path d="M2802 3616 c-4 -6 -7 -523 -7 -1148 l0 -1138 25 -1 c14 -1 39 -3 55
-5 45 -4 297 -4 320 0 11 3 33 5 48 5 l28 1 -6 358 c-4 196 -8 409 -10 472 -2
63 -6 241 -10 395 -4 154 -9 284 -12 290 -3 5 240 -235 540 -534 l546 -544 37
28 c50 38 231 219 268 268 l29 38 -44 45 c-24 25 -265 266 -536 537 -270 270
-489 495 -486 499 2 5 12 7 21 4 10 -3 134 -8 277 -11 143 -3 323 -8 400 -10
77 -2 290 -7 473 -10 317 -6 332 -6 333 12 0 10 2 27 5 38 5 23 5 310 0 368
-2 20 -6 41 -10 44 -12 12 -2276 11 -2284 -1z"/>
</g>
</svg>
