<?xml version="1.0" encoding="UTF-8" standalone="no"?>
<!DOCTYPE svg PUBLIC "-//W3C//DTD SVG 1.1//EN" "http://www.w3.org/Graphics/SVG/1.1/DTD/svg11.dtd">
<svg width="100%" height="100%" viewBox="0 0 641 642" version="1.1" xmlns="http://www.w3.org/2000/svg" xmlns:xlink="http://www.w3.org/1999/xlink" xml:space="preserve" xmlns:serif="http://www.serif.com/" style="fill-rule:evenodd;clip-rule:evenodd;stroke-linejoin:round;stroke-miterlimit:2;">
    <g transform="matrix(1,0,0,1,-481.733,-930.833)">
        <g id="Q">
            <g id="Center-align-arrow" serif:id="Center align arrow">
                <path id="Q-tail---arrow-line" serif:id="Q tail / arrow line" d="M971.259,1386.77L1121.13,1536.64C1124.99,1540.5 1121.44,1555.99 1114.16,1563.28C1106.32,1571.12 1091.39,1574.08 1087.54,1570.23L937.671,1420.36C949.935,1410.29 961.19,1399.03 971.259,1386.77ZM946.549,1362.06C936.676,1374.5 925.4,1385.78 912.962,1395.65L760.887,1243.58L794.474,1209.99L946.549,1362.06Z" style="fill:rgb(31,76,124);"/>
                <path id="left-arrow" serif:id="left arrow" d="M760.887,1439.01L760.887,1209.99L808.387,1209.99C808.387,1209.99 804.282,1265.97 804.9,1287.59C806.427,1341.01 808.118,1408.05 808.387,1439.01C800.588,1439.91 792.665,1440.37 784.637,1440.37C776.608,1440.37 768.686,1439.91 760.887,1439.01Z" style="fill:rgb(31,76,124);"/>
                <path id="top-arrow" serif:id="top arrow" d="M989.913,1209.99C990.807,1217.79 991.266,1225.71 991.266,1233.74C991.266,1241.77 990.807,1249.69 989.913,1257.49C958.944,1257.22 891.909,1255.53 838.488,1254C816.87,1253.38 760.887,1257.49 760.887,1257.49L760.887,1209.99L989.913,1209.99Z" style="fill:rgb(31,76,124);"/>
            </g>
            <path id="Q-circle" serif:id="Q circle" d="M784.637,930.833C951.814,930.833 1087.54,1066.56 1087.54,1233.74C1087.54,1400.91 951.814,1536.64 784.637,1536.64C617.46,1536.64 481.733,1400.91 481.733,1233.74C481.733,1066.56 617.46,930.833 784.637,930.833ZM784.94,992.657C917.996,992.657 1026.02,1100.68 1026.02,1233.74C1026.02,1366.79 917.996,1474.82 784.94,1474.82C651.885,1474.82 543.86,1366.79 543.86,1233.74C543.86,1100.68 651.885,992.657 784.94,992.657Z" style="fill:rgb(31,76,124);"/>
        </g>
    </g>
</svg>
