<?xml version="1.0" encoding="UTF-8" standalone="no"?>
<!DOCTYPE svg PUBLIC "-//W3C//DTD SVG 1.1//EN" "http://www.w3.org/Graphics/SVG/1.1/DTD/svg11.dtd">
<svg width="100%" height="100%" viewBox="0 0 2180 642" version="1.1" xmlns="http://www.w3.org/2000/svg" xmlns:xlink="http://www.w3.org/1999/xlink" xml:space="preserve" xmlns:serif="http://www.serif.com/" style="fill-rule:evenodd;clip-rule:evenodd;stroke-linejoin:round;stroke-miterlimit:2;">
    <g transform="matrix(1,0,0,1,-481.733,-930.833)">
        <g id="Quine---Final-Logo" serif:id="Quine - Final Logo">
            <g id="uine">
                <path id="e" d="M2623.44,1478.43L2584.56,1439.55C2572.76,1449.13 2560.28,1457.33 2547.12,1464.17C2525.74,1475.28 2500.04,1480.83 2470.04,1480.83C2451.15,1480.83 2433.1,1477.64 2415.87,1471.25C2398.65,1464.86 2383.1,1455.42 2369.21,1442.92C2355.32,1430.42 2343.93,1415.14 2335.04,1397.08C2326.15,1379.03 2320.6,1358.33 2318.37,1335L2660.04,1335C2660.6,1331.11 2660.87,1327.5 2660.87,1324.17L2660.87,1315C2660.87,1283.33 2656.43,1253.61 2647.54,1225.83C2638.65,1198.06 2625.6,1173.89 2608.37,1153.33C2591.15,1132.78 2570.04,1116.53 2545.04,1104.58C2520.04,1092.64 2491.71,1086.67 2460.04,1086.67C2430.04,1086.67 2402.4,1092.5 2377.12,1104.17C2351.85,1115.83 2330.04,1131.81 2311.71,1152.08C2293.37,1172.36 2279.07,1196.25 2268.79,1223.75C2258.51,1251.25 2253.37,1280.56 2253.37,1311.67C2253.37,1345 2259.07,1375.56 2270.46,1403.33C2281.85,1431.11 2297.26,1454.86 2316.71,1474.58C2336.15,1494.31 2358.93,1509.58 2385.04,1520.42C2411.15,1531.25 2438.93,1536.67 2468.37,1536.67C2509.49,1536.67 2543.93,1529.31 2571.71,1514.58C2590.32,1504.72 2607.57,1492.67 2623.44,1478.43ZM2318.37,1287.5C2320.6,1266.39 2325.6,1246.94 2333.37,1229.17C2341.15,1211.39 2351.15,1195.97 2363.37,1182.92C2375.6,1169.86 2389.76,1159.58 2405.87,1152.08C2421.99,1144.58 2439.49,1140.83 2458.37,1140.83C2480.04,1140.83 2499.07,1144.86 2515.46,1152.92C2531.85,1160.97 2545.74,1171.67 2557.12,1185C2568.51,1198.33 2577.4,1213.89 2583.79,1231.67C2590.18,1249.44 2594.21,1268.06 2595.87,1287.5L2318.37,1287.5Z" style="fill:white;fill-rule:nonzero;"/>
                <path id="n" d="M1876.71,1280C1876.71,1260 1879.9,1241.67 1886.29,1225C1892.68,1208.33 1901.71,1194.03 1913.37,1182.08C1925.04,1170.14 1938.79,1160.97 1954.62,1154.58C1970.46,1148.19 1987.54,1145 2005.87,1145C2044.21,1145 2073.65,1156.67 2094.21,1180C2114.76,1203.33 2125.04,1235 2125.04,1275L2125.04,1526.67L2189.21,1526.67L2189.21,1259.17C2189.21,1233.61 2185.46,1210.28 2177.96,1189.17C2170.46,1168.06 2159.62,1149.86 2145.46,1134.58C2131.29,1119.31 2114.07,1107.5 2093.79,1099.17C2073.51,1090.83 2050.32,1086.67 2024.21,1086.67C1986.99,1086.67 1956.71,1094.86 1933.37,1111.25C1910.04,1127.64 1891.15,1147.5 1876.71,1170.83L1876.71,1095.83L1812.54,1095.83L1812.54,1526.67L1876.71,1526.67L1876.71,1280Z" style="fill:white;fill-rule:nonzero;"/>
                <rect id="i--dotless-" serif:id="i (dotless)" x="1653.37" y="1095.83" width="64.167" height="430.833" style="fill:white;fill-rule:nonzero;"/>
                <g id="round-i-dot" serif:id="round i dot" transform="matrix(1.42808,0,0,1.42937,-839.223,-398.932)">
                    <circle cx="1767.86" cy="966.34" r="35.326" style="fill:white;"/>
                </g>
                <path id="u" d="M1494.21,1342.5C1494.21,1362.5 1490.87,1380.83 1484.21,1397.5C1477.54,1414.17 1468.51,1428.47 1457.12,1440.42C1445.74,1452.36 1432.12,1461.53 1416.29,1467.92C1400.46,1474.31 1383.37,1477.5 1365.04,1477.5C1326.71,1477.5 1297.26,1465.83 1276.71,1442.5C1256.15,1419.17 1245.87,1387.5 1245.87,1347.5L1245.87,1095.83L1181.71,1095.83L1181.71,1363.33C1181.71,1388.89 1185.46,1412.22 1192.96,1433.33C1200.46,1454.44 1211.29,1472.64 1225.46,1487.92C1239.62,1503.19 1256.85,1515 1277.12,1523.33C1297.4,1531.67 1320.6,1535.83 1346.71,1535.83C1383.93,1535.83 1414.21,1527.64 1437.54,1511.25C1460.87,1494.86 1479.76,1475 1494.21,1451.67L1494.21,1526.67L1557.54,1526.67L1557.54,1095.83L1494.21,1095.83L1494.21,1342.5Z" style="fill:white;fill-rule:nonzero;"/>
            </g>
            <g id="Q">
                <g id="Center-align-arrow" serif:id="Center align arrow">
                    <path id="Q-tail---arrow-line" serif:id="Q tail / arrow line" d="M971.259,1386.77L1121.13,1536.64C1124.99,1540.5 1121.44,1555.99 1114.16,1563.28C1106.32,1571.12 1091.39,1574.08 1087.54,1570.23L937.671,1420.36C949.935,1410.29 961.19,1399.03 971.259,1386.77ZM946.549,1362.06C936.676,1374.5 925.4,1385.78 912.962,1395.65L760.887,1243.58L794.474,1209.99L946.549,1362.06Z" style="fill:white;"/>
                    <path id="left-arrow" serif:id="left arrow" d="M760.887,1439.01L760.887,1209.99L808.387,1209.99C808.387,1209.99 804.282,1265.97 804.9,1287.59C806.427,1341.01 808.118,1408.05 808.387,1439.01C800.588,1439.91 792.665,1440.37 784.637,1440.37C776.608,1440.37 768.686,1439.91 760.887,1439.01Z" style="fill:white;"/>
                    <path id="top-arrow" serif:id="top arrow" d="M989.913,1209.99C990.807,1217.79 991.266,1225.71 991.266,1233.74C991.266,1241.77 990.807,1249.69 989.913,1257.49C958.944,1257.22 891.909,1255.53 838.488,1254C816.87,1253.38 760.887,1257.49 760.887,1257.49L760.887,1209.99L989.913,1209.99Z" style="fill:white;"/>
                </g>
                <path id="Q-circle" serif:id="Q circle" d="M784.637,930.833C951.814,930.833 1087.54,1066.56 1087.54,1233.74C1087.54,1400.91 951.814,1536.64 784.637,1536.64C617.46,1536.64 481.733,1400.91 481.733,1233.74C481.733,1066.56 617.46,930.833 784.637,930.833ZM784.94,992.657C917.996,992.657 1026.02,1100.68 1026.02,1233.74C1026.02,1366.79 917.996,1474.82 784.94,1474.82C651.885,1474.82 543.86,1366.79 543.86,1233.74C543.86,1100.68 651.885,992.657 784.94,992.657Z" style="fill:white;"/>
            </g>
        </g>
    </g>
</svg>
